<svg width="663" height="450" viewBox="0 0 663 450" fill="none" xmlns="http://www.w3.org/2000/svg">
<g style="mix-blend-mode:color-burn" opacity="0.8">
<path fill-rule="evenodd" clip-rule="evenodd" d="M94.5223 17.621H18.5866V42.0009H90.9175C90.1647 46.4234 89.3658 50.7684 88.5172 55.0356H28.7247V78.4499H83.1349C81.8939 83.1457 80.5741 87.7322 79.1696 92.2088H5.31046V117.071H69.974C67.316 123.199 64.4378 129.073 61.3191 134.692H9.89676V159.796H44.3407C32.2989 174.44 17.7113 186.685 0 196.487C7.48291 201.797 21.2418 213.625 26.0695 219.418C42.3672 208.902 56.2048 196.411 67.9775 181.926C77.8486 192.777 90.0629 207.88 95.3468 217.487L120.209 201.073C114.175 191.418 101.381 177.176 91.2433 167.279L68.3913 181.415C73.855 174.642 78.8714 167.437 83.4803 159.796H154.003V194.556C154.003 197.694 153.038 198.659 149.176 198.659H149.175C145.554 198.659 132.52 198.659 120.934 198.177C124.796 206.142 129.382 218.211 130.589 226.418C148.21 226.418 161.486 225.936 171.383 221.591C181.038 217.005 183.693 209.28 183.693 195.28V159.796H220.384V134.692H183.693V117.071H224.246V92.2088H111.627C112.89 87.7135 114.09 83.1273 115.23 78.4499H201.797V55.0356H120.317C121.142 50.7584 121.928 46.4135 122.677 42.0009H210.487V17.621H126.361C126.999 12.8644 127.603 8.03672 128.175 3.13798L96.5537 0C95.9321 5.98908 95.2571 11.8629 94.5223 17.621ZM103.641 117.071C101.42 123.139 99.0493 129.012 96.5167 134.692H154.003V117.071H103.641ZM531.77 30.4144C532.011 24.3798 532.977 14.0002 533.942 9.41394H500.631C501.355 13.7589 502.079 25.8281 502.079 30.6558C502.079 34.8713 502.045 41.8007 502.001 50.2814C496.987 50.5508 492.221 50.6907 487.838 50.6907C479.148 50.6907 468.768 50.6907 454.527 49.001L455.251 78.2085C463.458 79.174 472.872 79.4154 488.803 79.4154C492.642 79.4154 497.056 79.2735 501.874 79.0039C501.852 85.6779 501.838 92.5148 501.838 99.2089C501.838 104.739 501.881 110.425 501.951 116.095C472.535 128.906 448.009 150.997 448.009 172.107C448.009 197.694 481.32 217.97 504.735 217.97C520.666 217.97 531.287 209.763 531.287 180.073C531.287 174.169 531.029 163.328 530.731 150.791L530.731 150.784C530.602 145.362 530.466 139.622 530.34 133.828C545.013 129.577 560.555 127.209 575.702 127.209C596.702 127.209 611.185 136.623 611.185 153.279C611.185 170.659 595.495 180.555 575.943 183.935C567.736 185.624 557.115 185.624 546.494 185.624L557.356 217.004C558.99 216.845 560.65 216.692 562.333 216.537L562.337 216.537L562.34 216.537C570.851 215.753 579.951 214.916 589.219 212.901C627.599 203.487 642.565 182.004 642.565 153.279C642.565 119.968 613.116 100.657 575.943 100.657C562.63 100.657 546.139 102.691 529.883 106.759C529.855 103.703 529.839 100.767 529.839 98.002C529.839 91.0694 529.908 83.7916 530.039 76.4812C545.877 74.6093 562.491 71.9452 576.184 68.7945L575.46 38.8628C562.803 42.5495 546.829 45.5479 530.885 47.6034C531.139 41.4886 531.436 35.6842 531.77 30.4144ZM502.477 144.706C487.641 152.542 477.941 162.434 477.941 170.659C477.941 178.383 489.286 184.9 495.562 184.9C499.907 184.9 503.045 182.969 503.045 174.521C503.045 169.551 502.856 161.289 502.627 151.307V151.306V151.305L502.625 151.229C502.577 149.126 502.527 146.947 502.477 144.706ZM662.117 69.5186C649.082 60.346 621.082 44.6561 602.737 35.7248L589.46 59.1391C604.426 66.3806 635.806 84.4845 647.393 94.1398L662.117 69.5186ZM138.313 239.996C137.589 244.823 136.865 250.858 136.624 257.134C136.527 259.588 136.441 262.916 136.364 266.832C156.114 265.819 176.12 263.874 197.452 260.513L197.211 288.031C181.183 290.231 159.324 292.226 136.03 293.351C135.961 301.961 135.92 310.715 135.905 318.255C160.364 317.105 180.674 314.97 200.349 312.411L200.108 340.894C178.372 343.414 159.617 344.907 136.466 345.64C136.876 355.029 137.454 365.011 138.012 374.57C168.585 383.371 191.8 399.449 205.66 411.137L188.28 438.172C175.473 426.04 158.903 413.381 139.577 404.567C139.694 407.846 139.762 410.792 139.762 413.31C139.762 434.069 124.072 450 92.4503 450C53.8288 450 33.5525 435.276 33.5525 409.689C33.5525 385.309 56.0012 368.171 92.933 368.171C98.106 368.171 103.151 368.418 108.062 368.88C107.74 361.37 107.415 353.568 107.162 346.165C103.143 346.192 98.9707 346.205 94.6227 346.205C80.3811 346.205 53.1046 344.998 37.1733 343.067L36.6905 314.583C52.6218 317.48 82.0707 319.17 94.8641 319.17C98.9161 319.17 102.857 319.146 106.695 319.1C106.705 311.156 106.738 302.582 106.776 294.252C103.843 294.288 100.916 294.307 98.0021 294.307C82.5535 294.307 54.5529 292.135 38.6216 290.204L38.1388 262.444C55.2771 265.341 83.0363 267.755 97.7607 267.755C100.817 267.755 103.864 267.74 106.903 267.709C106.922 263.296 106.933 259.442 106.933 256.41C106.933 252.065 106.451 244.582 105.485 239.996H138.313ZM89.0709 393.033C95.9375 393.033 102.63 393.681 109.123 394.862C109.262 399.008 109.347 402.514 109.347 405.102C109.347 419.103 100.657 422.724 87.864 422.724C71.2084 422.724 62.76 417.172 62.76 407.999C62.76 399.551 72.174 393.033 89.0709 393.033ZM320.725 253.889L320.726 253.884C321.395 250.681 322.063 247.477 322.731 244.582L287.006 240.72C287.213 256.265 285.285 273.59 281.832 291.931C269.631 292.973 258.254 293.879 250.798 294.066L250.106 294.084C241.442 294.319 233.435 294.536 224.97 294.066L227.867 326.653C234.14 325.607 244.399 324.199 251.581 323.214L251.588 323.213L251.601 323.211L251.603 323.211L251.605 323.21C252.705 323.059 253.731 322.919 254.66 322.79L255.214 322.72L255.216 322.72C259.702 322.149 267 321.22 275.301 320.225C266.439 353.45 250.011 402.106 226.419 433.827L258.04 446.379C280.053 410.608 297.797 353.308 307.203 316.792C314.043 316.184 319.993 315.79 323.938 315.79C338.904 315.79 347.352 318.687 347.352 337.998C347.352 361.653 344.214 391.102 337.455 404.62C333.593 412.585 327.559 414.999 319.352 414.999C313.076 414.999 299.317 412.585 289.903 409.93L294.972 441.793C303.42 443.724 314.765 445.172 324.179 445.172C342.283 445.172 355.559 439.862 363.766 422.965C373.904 402.206 377.284 363.102 377.284 334.618C377.284 299.617 359.18 288.272 333.835 288.272C328.77 288.272 321.552 288.688 313.359 289.297C314.021 286.042 314.691 282.769 315.345 279.574L315.347 279.563C316.445 274.202 317.496 269.065 318.386 264.617C319.166 261.367 319.946 257.628 320.725 253.889L320.725 253.889ZM440.485 335.477C430.94 311.934 416.943 282.626 406.008 267.031L377.042 279.341C394.422 300.824 411.56 344.274 417.836 371.309L448.492 357.067C446.776 351.754 444.388 345.249 441.549 338.124C448.415 337.11 462.536 335.064 469.734 334.135C473.875 333.671 479.458 333.054 486.088 332.335C486.089 354.913 486.15 378.152 486.389 388.447C487.355 430.206 495.079 443.483 557.357 443.483C580.529 443.483 609.978 441.31 626.151 439.62L627.358 406.551C609.495 409.93 578.84 412.827 555.184 412.827C518.976 412.827 517.045 407.516 516.321 383.619C516.07 373.323 516.211 351.138 516.404 329.127C537.043 326.998 560.69 324.673 582.036 322.846C581.648 334.591 581.155 345.411 580.288 351.998C579.564 356.826 577.391 357.55 572.805 357.55C567.977 357.55 557.839 356.343 550.356 354.653L549.874 381.205C558.081 382.654 577.633 384.826 586.081 384.826C598.392 384.826 604.668 381.688 607.323 368.895C609.315 358.738 610.156 339.216 610.66 320.63C617.738 320.16 624.056 319.82 629.289 319.652C631.719 319.652 635.125 319.58 638.64 319.505L638.643 319.505H638.645H638.646H638.648C644.21 319.387 650.042 319.263 652.703 319.411V289.962C647.174 290.331 640.377 290.84 634.571 291.275L634.568 291.276L633.501 291.356C632.097 291.461 630.762 291.561 629.53 291.652C624.03 291.994 617.914 292.42 611.364 292.909C611.394 291.263 611.422 289.589 611.451 287.884L611.452 287.819L611.453 287.78L611.453 287.756C611.566 281.176 611.686 274.146 611.909 266.548C612.151 260.272 612.633 249.651 613.358 245.789H580.771C581.495 250.375 582.46 261.72 582.46 267.996V295.221C560.571 297.063 537.066 299.205 516.661 301.1C516.744 291.728 516.804 283.626 516.804 278.134C516.804 267.755 517.287 260.996 518.252 253.03H484.217C485.424 261.479 486.148 269.686 486.148 279.824C486.148 282.436 486.14 286.963 486.13 292.751C486.124 296.106 486.118 299.884 486.112 303.959C478.37 304.685 472.07 305.272 467.803 305.652C455.492 307.1 444.389 307.583 437.63 307.583L440.485 335.477ZM230.522 14.9658H399.974H410.112H429.664V190.452C429.664 207.108 426.767 216.039 416.388 221.108C406.25 225.936 391.043 226.66 369.077 226.66C368.111 217.97 363.766 203.487 359.663 195.28C373.421 196.004 389.111 196.004 393.939 195.763C398.284 195.763 399.974 194.556 399.974 189.969V42.4836H230.522V14.9658ZM232.694 59.8632H375.594V84.9672H232.694V59.8632ZM245.246 102.83H270.35H273.488H363.042V184.9H273.488V202.521H245.246V102.83ZM273.488 160.038V127.934H334.559V160.038H273.488Z" fill="#DD2B2B"/>
</g>
</svg>
