<svg width="24" height="24" viewBox="0 0 24 24" fill="none" xmlns="http://www.w3.org/2000/svg">
<path d="M19.35 6.225C19.35 7.09485 18.6448 7.8 17.775 7.8C16.9052 7.8 16.2 7.09485 16.2 6.225C16.2 5.35515 16.9052 4.65 17.775 4.65C18.6448 4.65 19.35 5.35515 19.35 6.225Z" fill="white"/>
<path fill-rule="evenodd" clip-rule="evenodd" d="M12 17.25C14.8995 17.25 17.25 14.8995 17.25 12C17.25 9.1005 14.8995 6.75 12 6.75C9.1005 6.75 6.75 9.1005 6.75 12C6.75 14.8995 9.1005 17.25 12 17.25ZM12 15.15C13.7397 15.15 15.15 13.7397 15.15 12C15.15 10.2603 13.7397 8.85 12 8.85C10.2603 8.85 8.85 10.2603 8.85 12C8.85 13.7397 10.2603 15.15 12 15.15Z" fill="white"/>
<path fill-rule="evenodd" clip-rule="evenodd" d="M1.5 11.58C1.5 8.05167 1.5 6.2875 2.18666 4.93986C2.79066 3.75444 3.75444 2.79066 4.93986 2.18666C6.2875 1.5 8.05167 1.5 11.58 1.5H12.42C15.9483 1.5 17.7125 1.5 19.0601 2.18666C20.2456 2.79066 21.2093 3.75444 21.8133 4.93986C22.5 6.2875 22.5 8.05167 22.5 11.58V12.42C22.5 15.9483 22.5 17.7125 21.8133 19.0601C21.2093 20.2456 20.2456 21.2093 19.0601 21.8133C17.7125 22.5 15.9483 22.5 12.42 22.5H11.58C8.05167 22.5 6.2875 22.5 4.93986 21.8133C3.75444 21.2093 2.79066 20.2456 2.18666 19.0601C1.5 17.7125 1.5 15.9483 1.5 12.42V11.58ZM11.58 3.6H12.42C14.2188 3.6 15.4416 3.60163 16.3868 3.67886C17.3075 3.75408 17.7783 3.89042 18.1068 4.05777C18.897 4.46044 19.5396 5.10296 19.9422 5.89324C20.1096 6.22168 20.2459 6.69251 20.3211 7.61318C20.3984 8.55837 20.4 9.78118 20.4 11.58V12.42C20.4 14.2188 20.3984 15.4416 20.3211 16.3868C20.2459 17.3075 20.1096 17.7783 19.9422 18.1068C19.5396 18.897 18.897 19.5396 18.1068 19.9422C17.7783 20.1096 17.3075 20.2459 16.3868 20.3211C15.4416 20.3984 14.2188 20.4 12.42 20.4H11.58C9.78118 20.4 8.55837 20.3984 7.61318 20.3211C6.69251 20.2459 6.22168 20.1096 5.89324 19.9422C5.10296 19.5396 4.46044 18.897 4.05777 18.1068C3.89042 17.7783 3.75408 17.3075 3.67886 16.3868C3.60163 15.4416 3.6 14.2188 3.6 12.42V11.58C3.6 9.78118 3.60163 8.55837 3.67886 7.61318C3.75408 6.69251 3.89042 6.22168 4.05777 5.89324C4.46044 5.10296 5.10296 4.46044 5.89324 4.05777C6.22168 3.89042 6.69251 3.75408 7.61318 3.67886C8.55837 3.60163 9.78118 3.6 11.58 3.6Z" fill="white"/>
</svg>
