<svg width="26" height="24" viewBox="0 0 26 24" fill="none" xmlns="http://www.w3.org/2000/svg">
<path d="M20.7869 6.48231C21.3742 6.13612 22.3451 5.20208 22.6569 4.0824C22.0382 4.4813 20.7727 4.94258 19.9318 5.13963C19.1358 4.28457 18.0019 3.75 16.7435 3.75C14.3351 3.75 12.3826 5.70819 12.3826 8.12373C12.3826 8.46032 12.4205 8.78802 12.4923 9.10278C8.6859 9.01393 5.60912 7.4165 3.55613 4.57226C3.05027 5.23707 2.02109 8.31618 4.88185 10.3631C4.49809 10.3981 3.52125 10.2581 2.94561 9.85573C2.84095 10.678 3.31192 13.3722 6.382 14.142C5.77148 14.3869 4.68997 14.2819 4.4632 14.1945C4.6202 15.0692 5.82381 17.1161 8.49268 17.2386C6.71855 18.9308 3.86624 19.1813 2.25 19.0767C4.15363 20.2943 6.41531 21 8.84156 21C15.9574 21 21.2605 14.9535 21.1033 8.02232C21.948 7.4368 22.9773 6.39094 23.25 5.76192C22.6986 6.13603 21.3028 6.40428 20.7869 6.48231ZM20.7869 6.48231C20.7821 6.47048 20.7918 6.49408 20.7869 6.48231Z" stroke="white" stroke-width="2"/>
</svg>
