<svg width="41" height="32" viewBox="0 0 41 32" fill="none" xmlns="http://www.w3.org/2000/svg">
<path opacity="0.22" d="M17.493 3.51499L9.867 18.152L6.054 19.136C6.464 18.234 6.956 17.496 7.53 16.922C8.186 16.348 8.924 16.061 9.744 16.061C11.466 16.061 13.024 16.758 14.418 18.152C15.894 19.546 16.632 21.35 16.632 23.564C16.632 25.778 15.812 27.746 14.172 29.468C12.614 31.108 10.728 31.928 8.514 31.928C6.3 31.928 4.373 31.108 2.733 29.468C1.093 27.828 0.273 25.86 0.273 23.564C0.273 22.58 0.478 21.473 0.888 20.243C1.298 18.931 1.995 17.291 2.979 15.323L11.22 0.0709939L17.493 3.51499ZM40.125 3.51499L32.499 18.152L28.686 19.136C29.096 18.234 29.588 17.496 30.162 16.922C30.818 16.348 31.556 16.061 32.376 16.061C34.098 16.061 35.656 16.758 37.05 18.152C38.526 19.546 39.264 21.35 39.264 23.564C39.264 25.778 38.444 27.746 36.804 29.468C35.246 31.108 33.36 31.928 31.146 31.928C28.932 31.928 27.005 31.108 25.365 29.468C23.725 27.828 22.905 25.86 22.905 23.564C22.905 22.58 23.11 21.473 23.52 20.243C23.93 18.931 24.627 17.291 25.611 15.323L33.852 0.0709939L40.125 3.51499Z" fill="white"/>
</svg>
