<svg width="70" height="46" viewBox="0 0 70 46" fill="none" xmlns="http://www.w3.org/2000/svg">
<path d="M5.424 0C7.008 0.863999 9.648 2.544 10.896 3.432L9.12 6.072C7.776 5.136 5.28 3.528 3.696 2.64L5.424 0ZM0.984 17.04C3.672 16.584 6.528 15.768 9.144 14.328C13.224 12.048 16.584 8.76 18.48 5.328L20.328 8.592C18.12 11.928 14.712 14.952 10.8 17.232C8.352 18.6 4.896 19.8 2.784 20.184L0.984 17.04ZM1.728 5.472C3.336 6.336 5.976 7.968 7.224 8.856L5.448 11.544C4.104 10.584 1.608 8.976 0 8.112L1.728 5.472Z" fill="#DD2B2B"/>
<path d="M33.024 7.56C32.928 7.872 32.832 8.304 32.808 8.568C32.568 10.248 31.752 15.696 31.464 17.424H28.152C28.464 15.84 29.184 11.208 29.304 9.6C28.152 9.6 23.496 9.6 22.8 9.6C22.056 9.6 21.096 9.648 20.4 9.696V6.528C21.048 6.624 22.152 6.696 22.776 6.696C24 6.696 27.792 6.696 28.944 6.696C29.424 6.696 30.408 6.6 30.72 6.432L33.024 7.56ZM18.216 16.248C18.84 16.32 19.752 16.392 20.568 16.392C22.008 16.392 31.992 16.392 33.168 16.392C33.768 16.392 34.896 16.344 35.52 16.272V19.368C35.016 19.344 33.84 19.32 33.216 19.32C31.968 19.32 21.792 19.32 20.568 19.32C19.728 19.32 19.104 19.344 18.216 19.392V16.248Z" fill="#DD2B2B"/>
<path d="M39.024 0C40.608 0.863999 43.248 2.544 44.496 3.432L42.72 6.072C41.376 5.136 38.88 3.528 37.296 2.64L39.024 0ZM34.584 17.04C37.272 16.584 40.128 15.768 42.744 14.328C46.824 12.048 50.184 8.76 52.08 5.328L53.928 8.592C51.72 11.928 48.312 14.952 44.4 17.232C41.952 18.6 38.496 19.8 36.384 20.184L34.584 17.04ZM35.328 5.472C36.936 6.336 39.576 7.968 40.824 8.856L39.048 11.544C37.704 10.584 35.208 8.976 33.6 8.112L35.328 5.472Z" fill="#DD2B2B"/>
<path d="M58.032 3.744C58.104 4.32 58.272 4.944 58.416 5.568C59.232 8.448 61.488 16.704 62.088 18.696C62.208 19.128 62.544 20.184 62.712 20.664L59.472 21.48C59.376 20.832 59.232 20.04 59.04 19.368C58.44 17.28 56.256 8.712 55.488 6.216C55.32 5.616 55.056 5.016 54.792 4.512L58.032 3.744ZM69.552 7.464C68.52 9.552 66.12 13.176 64.44 14.952L61.776 13.632C63.024 12.528 64.68 10.512 65.328 9.336C64.08 9.552 54.312 11.592 52.344 12.024L51.6 9.168C52.344 9.096 53.016 9.024 53.808 8.88C55.104 8.688 64.704 6.864 66.408 6.48C66.816 6.384 67.296 6.24 67.608 6.096L69.552 7.464Z" fill="#DD2B2B"/>
<path d="M12.9308 24.744C14.5868 25.872 17.7068 28.368 19.1228 29.832L16.6748 32.328C15.4268 30.984 12.4028 28.368 10.6508 27.168L12.9308 24.744ZM9.90685 40.728C13.6748 40.2 16.7708 38.976 19.0988 37.608C23.2028 35.16 26.3228 31.512 27.8588 28.272L29.7068 31.632C27.9068 34.896 24.7148 38.208 20.8508 40.536C18.4028 42 15.3068 43.32 11.9468 43.896L9.90685 40.728Z" fill="#DD2B2B"/>
<path d="M28.7708 24.6C29.5388 24.696 30.5228 24.768 31.3388 24.768C32.8508 24.768 39.5708 24.768 40.9868 24.768C41.7788 24.768 42.7388 24.696 43.5548 24.6V27.696C42.7388 27.648 41.8028 27.6 40.9868 27.6C39.5708 27.6 32.8508 27.6 31.3388 27.6C30.5228 27.6 29.4908 27.648 28.7708 27.696V24.6ZM25.9628 30.72C26.6828 30.816 27.5228 30.864 28.2668 30.864C29.7788 30.864 42.5708 30.864 43.9868 30.864C44.4908 30.864 45.5468 30.84 46.1948 30.72V33.84C45.5708 33.816 44.6588 33.792 43.9868 33.792C42.5708 33.792 29.7788 33.792 28.2668 33.792C27.5708 33.792 26.6348 33.816 25.9628 33.864V30.72ZM38.2508 32.4C38.2508 35.544 37.6988 37.944 36.6668 39.936C35.8508 41.616 33.9788 43.464 31.8668 44.568L29.0348 42.528C30.7388 41.856 32.4428 40.488 33.3788 39.072C34.5788 37.248 34.9148 34.992 34.9148 32.424L38.2508 32.4Z" fill="#DD2B2B"/>
<path d="M41.8612 36.168C45.0052 35.472 48.5572 33.864 50.4532 32.712C52.8052 31.296 55.2052 29.16 56.4532 27.6L58.8292 29.928C57.3892 31.488 54.4852 33.744 51.8692 35.28C49.7092 36.552 46.0132 38.16 43.2772 38.976L41.8612 36.168ZM50.1892 34.608L53.4532 33.984V42.504C53.4532 43.368 53.4772 44.64 53.6212 45.12H50.0452C50.1172 44.64 50.1892 43.368 50.1892 42.504V34.608Z" fill="#DD2B2B"/>
<path d="M11.2931 9.25459C13.2006 9.25459 14.6688 9.7691 15.6978 10.7981C16.7268 11.8271 17.2413 13.2828 17.2413 15.1652V15.8428L13.4013 16.2193V15.2405C13.4013 14.4875 13.2257 13.9228 12.8743 13.5464C12.5229 13.1448 12.021 12.944 11.3684 12.944C10.7159 12.944 10.2139 13.1448 9.86252 13.5464C9.51115 13.9228 9.33546 14.4875 9.33546 15.2405V15.5793C9.33546 16.3824 9.57389 17.173 10.0508 17.9511C10.5276 18.704 11.4061 19.6201 12.6861 20.6993C14.5182 22.2554 15.8108 23.6609 16.5637 24.9158C17.3166 26.1707 17.6931 27.5762 17.6931 29.1322V30.4499C17.6931 32.3322 17.1535 33.7879 16.0743 34.8169C15.0202 35.846 13.5017 36.3605 11.519 36.3605C9.53625 36.3605 8.00527 35.846 6.92605 34.8169C5.87193 33.7879 5.34487 32.3322 5.34487 30.4499V28.6805L9.18487 28.304V30.1864C9.18487 31.8428 9.93781 32.6711 11.4437 32.6711C12.9496 32.6711 13.7025 31.8428 13.7025 30.1864V29.3205C13.7025 28.4671 13.4515 27.664 12.9496 26.9111C12.4476 26.133 11.5441 25.1919 10.239 24.0875C8.43193 22.5566 7.16448 21.1762 6.43664 19.9464C5.70879 18.6915 5.34487 17.286 5.34487 15.7299V15.1652C5.34487 13.2828 5.85938 11.8271 6.8884 10.7981C7.91742 9.7691 9.38566 9.25459 11.2931 9.25459ZM30.8075 30.0734C30.8075 32.1064 30.2554 33.6624 29.1511 34.7417C28.0718 35.8209 26.5534 36.3605 24.5958 36.3605C22.6883 36.3605 21.1824 35.8209 20.0781 34.7417C18.9989 33.6624 18.4593 32.1064 18.4593 30.0734V9.63106H22.2993V29.9605C22.2993 31.7173 23.0522 32.5958 24.5581 32.5958C26.064 32.5958 26.8169 31.7173 26.8169 29.9605V9.63106H30.8075V30.0734ZM38.024 9.25459C39.9314 9.25459 41.3997 9.7691 42.4287 10.7981C43.4577 11.8271 43.9722 13.2828 43.9722 15.1652V15.8428L40.1322 16.2193V15.2405C40.1322 14.4875 39.9565 13.9228 39.6052 13.5464C39.2538 13.1448 38.7518 12.944 38.0993 12.944C37.4467 12.944 36.9448 13.1448 36.5934 13.5464C36.242 13.9228 36.0663 14.4875 36.0663 15.2405V15.5793C36.0663 16.3824 36.3048 17.173 36.7816 17.9511C37.2585 18.704 38.1369 19.6201 39.4169 20.6993C41.2491 22.2554 42.5416 23.6609 43.2946 24.9158C44.0475 26.1707 44.424 27.5762 44.424 29.1322V30.4499C44.424 32.3322 43.8844 33.7879 42.8052 34.8169C41.7511 35.846 40.2326 36.3605 38.2499 36.3605C36.2671 36.3605 34.7361 35.846 33.6569 34.8169C32.6028 33.7879 32.0758 32.3322 32.0758 30.4499V28.6805L35.9158 28.304V30.1864C35.9158 31.8428 36.6687 32.6711 38.1746 32.6711C39.6805 32.6711 40.4334 31.8428 40.4334 30.1864V29.3205C40.4334 28.4671 40.1824 27.664 39.6805 26.9111C39.1785 26.133 38.275 25.1919 36.9699 24.0875C35.1628 22.5566 33.8954 21.1762 33.1675 19.9464C32.4397 18.6915 32.0758 17.286 32.0758 15.7299V15.1652C32.0758 13.2828 32.5903 11.8271 33.6193 10.7981C34.6483 9.7691 36.1165 9.25459 38.024 9.25459ZM58.0672 35.984H54.0766V24.5017H49.3331V35.984H45.3425V9.63106H49.3331V20.7369H54.0766V9.63106H58.0672V35.984ZM64.8493 35.984H60.8587V9.63106H64.8493V35.984Z" fill="#1E1E1E"/>
</svg>
